HIERARCHY
ROOT Hips
{
  OFFSET 12.5924 87.7646 8.5502
  CHANNELS 6 Xposition Yposition Zposition Zrotation Xrotation Yrotation
  JOINT RightUpLeg
  {
    OFFSET -9.27424 -1.51647 -0.00177081
    CHANNELS 3 Zrotation Xrotation Yrotation
    JOINT RightLeg
    {
      OFFSET -0.0218595 -41.9179 0.0996455
      CHANNELS 3 Zrotation Xrotation Yrotation
      JOINT RightFoot
      {
        OFFSET -0.864559 -41.9626 -0.357059
        CHANNELS 3 Zrotation Xrotation Yrotation
        End Site
        {
          OFFSET 0 -7.69 17.5
        }
      }
    }
  }
  JOINT LeftUpLeg
  {
    OFFSET 9.25718 -1.5867 0.052377
    CHANNELS 3 Zrotation Xrotation Yrotation
    JOINT LeftLeg
    {
      OFFSET 0.0916619 -41.8676 0.000817906
      CHANNELS 3 Zrotation Xrotation Yrotation
      JOINT LeftFoot
      {
        OFFSET -0.467602 -41.8546 0.208385
        CHANNELS 3 Zrotation Xrotation Yrotation
        End Site
        {
          OFFSET 0 -7.69 17.5
        }
      }
    }
  }
  JOINT Spine
  {
    OFFSET 0.0181296 14.2981 0.0454815
    CHANNELS 3 Zrotation Xrotation Yrotation
    JOINT Spine1
    {
      OFFSET 0.0179205 9.71532 0.0144816
      CHANNELS 3 Zrotation Xrotation Yrotation
      JOINT Spine2
      {
        OFFSET 0.0460832 10.1118 -0.00781291
        CHANNELS 3 Zrotation Xrotation Yrotation
        JOINT Spine3
        {
          OFFSET 0.0326005 9.72657 -0.000132442
          CHANNELS 3 Zrotation Xrotation Yrotation
          JOINT Neck
          {
            OFFSET -0.0594321 10.3688 0.0892585
            CHANNELS 3 Zrotation Xrotation Yrotation
            JOINT Head
            {
              OFFSET -0.027184 9.52116 0.11923
              CHANNELS 3 Zrotation Xrotation Yrotation
              End Site
              {
                OFFSET 0 15.95 0
              }
            }
          }
          JOINT RightShoulder
          {
            OFFSET -3.18249 6.94712 0.0315742
            CHANNELS 3 Zrotation Xrotation Yrotation
            JOINT RightArm
            {
              OFFSET -12.6859 -0.0281953 -0.0223312
              CHANNELS 3 Zrotation Xrotation Yrotation
              JOINT RightForeArm
              {
                OFFSET -26.4349 -0.138904 0.103809
                CHANNELS 3 Zrotation Xrotation Yrotation
                JOINT RightHand
                {
                  OFFSET -26.0404 -0.036643 0.02476
                  CHANNELS 3 Zrotation Xrotation Yrotation
                  JOINT RightHandThumb1
                  {
                    OFFSET -2.48905 0.190105 3.12053
                    CHANNELS 3 Zrotation Xrotation Yrotation
                    JOINT RightHandThumb2
                    {
                      OFFSET -3.68274 0 0
                      CHANNELS 3 Zrotation Xrotation Yrotation
                      JOINT RightHandThumb3
                      {
                        OFFSET -2.55832 0 0
                        CHANNELS 3 Zrotation Xrotation Yrotation
                        End Site
                        {
                          OFFSET -2.194 0 0
                        }
                      }
                    }
                  }
                  JOINT RightInHandIndex
                  {
                    OFFSET -3.22368 0.508421 1.97842
                    CHANNELS 3 Zrotation Xrotation Yrotation
                    JOINT RightHandIndex1
                    {
                      OFFSET -5.21684 -0.091368 0.999158
                      CHANNELS 3 Zrotation Xrotation Yrotation
                      JOINT RightHandIndex2
                      {
                        OFFSET -3.61937 0 0
                        CHANNELS 3 Zrotation Xrotation Yrotation
                        JOINT RightHandIndex3
                        {
                          OFFSET -2.0521 0 0
                          CHANNELS 3 Zrotation Xrotation Yrotation
                          End Site
                          {
                            OFFSET -1.805 0 0
                          }
                        }
                      }
                    }
                  }
                  JOINT RightInHandMiddle
                  {
                    OFFSET -3.38211 0.517263 0.756737
                    CHANNELS 3 Zrotation Xrotation Yrotation
                    JOINT RightHandMiddle1
                    {
                      OFFSET -5.17411 -0.084 0.313895
                      CHANNELS 3 Zrotation Xrotation Yrotation
                      JOINT RightHandMiddle2
                      {
                        OFFSET -3.94947 0 0
                        CHANNELS 3 Zrotation Xrotation Yrotation
                        JOINT RightHandMiddle3
                        {
                          OFFSET -2.47579 0 0
                          CHANNELS 3 Zrotation Xrotation Yrotation
                          End Site
                          {
                            OFFSET -1.975 0 0
                          }
                        }
                      }
                    }
                  }
                  JOINT RightInHandRing
                  {
                    OFFSET -3.36516 0.537895 -0.128947
                    CHANNELS 3 Zrotation Xrotation Yrotation
                    JOINT RightHandRing1
                    {
                      OFFSET -4.63474 -0.022105 -0.478947
                      CHANNELS 3 Zrotation Xrotation Yrotation
                      JOINT RightHandRing2
                      {
                        OFFSET -3.44238 0 0
                        CHANNELS 3 Zrotation Xrotation Yrotation
                        JOINT RightHandRing3
                        {
                          OFFSET -2.3881 0 0
                          CHANNELS 3 Zrotation Xrotation Yrotation
                          End Site
                          {
                            OFFSET -1.857 0 0
                          }
                        }
                      }
                    }
                  }
                  JOINT RightInHandPinky
                  {
                    OFFSET -3.16105 0.469368 -1.20179
                    CHANNELS 3 Zrotation Xrotation Yrotation
                    JOINT RightHandPinky1
                    {
                      OFFSET -4.14105 -0.022105 -1.09053
                      CHANNELS 3 Zrotation Xrotation Yrotation
                      JOINT RightHandPinky2
                      {
                        OFFSET -2.75653 0 0
                        CHANNELS 3 Zrotation Xrotation Yrotation
                        JOINT RightHandPinky3
                        {
                          OFFSET -1.74189 0 0
                          CHANNELS 3 Zrotation Xrotation Yrotation
                          End Site
                          {
                            OFFSET -1.645 0 0
                          }
                        }
                      }
                    }
                  }
                }
              }
            }
          }
          JOINT LeftShoulder
          {
            OFFSET 3.21289 6.91298 -0.0113859
            CHANNELS 3 Zrotation Xrotation Yrotation
            JOINT LeftArm
            {
              OFFSET 12.7691 -0.0256594 -0.0399854
              CHANNELS 3 Zrotation Xrotation Yrotation
              JOINT LeftForeArm
              {
                OFFSET 26.4177 -0.0137926 -0.00219879
                CHANNELS 3 Zrotation Xrotation Yrotation
                JOINT LeftHand
                {
                  OFFSET 26.0013 -0.0633708 -0.0119906
                  CHANNELS 3 Zrotation Xrotation Yrotation
                  JOINT LeftHandThumb1
                  {
                    OFFSET 2.48905 0.190105 3.12053
                    CHANNELS 3 Zrotation Xrotation Yrotation
                    JOINT LeftHandThumb2
                    {
                      OFFSET 3.68274 0 0
                      CHANNELS 3 Zrotation Xrotation Yrotation
                      JOINT LeftHandThumb3
                      {
                        OFFSET 2.55832 0 0
                        CHANNELS 3 Zrotation Xrotation Yrotation
                        End Site
                        {
                          OFFSET 2.194 0 0
                        }
                      }
                    }
                  }
                  JOINT LeftInHandIndex
                  {
                    OFFSET 3.22368 0.508421 1.97842
                    CHANNELS 3 Zrotation Xrotation Yrotation
                    JOINT LeftHandIndex1
                    {
                      OFFSET 5.21684 -0.091368 0.999158
                      CHANNELS 3 Zrotation Xrotation Yrotation
                      JOINT LeftHandIndex2
                      {
                        OFFSET 3.61937 0 0
                        CHANNELS 3 Zrotation Xrotation Yrotation
                        JOINT LeftHandIndex3
                        {
                          OFFSET 2.0521 0 0
                          CHANNELS 3 Zrotation Xrotation Yrotation
                          End Site
                          {
                            OFFSET 1.805 0 0
                          }
                        }
                      }
                    }
                  }
                  JOINT LeftInHandMiddle
                  {
                    OFFSET 3.38211 0.517263 0.756737
                    CHANNELS 3 Zrotation Xrotation Yrotation
                    JOINT LeftHandMiddle1
                    {
                      OFFSET 5.17411 -0.084 0.313895
                      CHANNELS 3 Zrotation Xrotation Yrotation
                      JOINT LeftHandMiddle2
                      {
                        OFFSET 3.94947 0 0
                        CHANNELS 3 Zrotation Xrotation Yrotation
                        JOINT LeftHandMiddle3
                        {
                          OFFSET 2.47579 0 0
                          CHANNELS 3 Zrotation Xrotation Yrotation
                          End Site
                          {
                            OFFSET 1.975 0 0
                          }
                        }
                      }
                    }
                  }
                  JOINT LeftInHandRing
                  {
                    OFFSET 3.36516 0.537895 -0.128947
                    CHANNELS 3 Zrotation Xrotation Yrotation
                    JOINT LeftHandRing1
                    {
                      OFFSET 4.63474 -0.022105 -0.478947
                      CHANNELS 3 Zrotation Xrotation Yrotation
                      JOINT LeftHandRing2
                      {
                        OFFSET 3.44238 0 0
                        CHANNELS 3 Zrotation Xrotation Yrotation
                        JOINT LeftHandRing3
                        {
                          OFFSET 2.3881 0 0
                          CHANNELS 3 Zrotation Xrotation Yrotation
                          End Site
                          {
                            OFFSET 1.857 0 0
                          }
                        }
                      }
                    }
                  }
                  JOINT LeftInHandPinky
                  {
                    OFFSET 3.16105 0.469368 -1.20179
                    CHANNELS 3 Zrotation Xrotation Yrotation
                    JOINT LeftHandPinky1
                    {
                      OFFSET 4.14105 -0.022105 -1.09053
                      CHANNELS 3 Zrotation Xrotation Yrotation
                      JOINT LeftHandPinky2
                      {
                        OFFSET 2.75653 0 0
                        CHANNELS 3 Zrotation Xrotation Yrotation
                        JOINT LeftHandPinky3
                        {
                          OFFSET 1.74189 0 0
                          CHANNELS 3 Zrotation Xrotation Yrotation
                          End Site
                          {
                            OFFSET 1.645 0 0
                          }
                        }
                      }
                    }
                  }
                }
              }
            }
          }
        }
      }
    }
  }
}
MOTION
Frames: 2
Frame Time: 0.00833333
7.639803423843573000e+02 8.772964432407093227e+01 4.596197850103640015e+00 2.516412755125957190e+01 -1.525357108408440965e+01 -1.566853688143823717e+02 3.637824793154786107e+01 -4.976884851696288337e+01 4.868858005876423789e+01 -2.055977497549993593e+00 2.878296969653158754e+01 -4.068763992373359173e+00 6.078800361566234933e+00 -1.402842297448558151e+00 3.449939527833846853e+01 4.934215442514561545e+01 -3.929185848334729769e+01 3.592468621241607707e+01 -6.870529480864997041e+00 4.267609740463016266e+01 1.672446777911969917e+01 -1.281178173724140734e+01 -1.247034613847053208e+01 8.467145208319170280e+00 1.133384044394996071e+00 9.879778672826173391e+00 -2.765078849405300332e+01 -1.207529243048240525e-01 2.514614319985824853e+00 -7.196215345686597153e+00 -6.553014537009534124e-02 3.819011438321902929e+00 -1.122624096907567015e+01 -1.005836965128066529e+00 -6.186854166385740150e-01 2.466218014261360114e+00 -4.710190674611998141e+00 -2.370697457057277191e+00 2.600853469178609600e+01 -1.694409698600464509e+01 -2.103069935725020656e+00 3.118884772485425572e+01 4.230051125054848704e+00 -3.514144987220762406e+00 -5.335287601711365291e+00 6.121203856562421208e+01 -1.538720653449445663e+01 -1.039799626630243878e+01 6.505837928985198459e+01 -2.309289287881820485e+01 1.031937606483052576e+02 -1.743011277252513835e+01 -1.187500718303856040e+01 -1.995725834569494594e+00 2.818400000000000105e+01 1.072940000000000005e+01 1.915919999999999845e+01 3.658602572631515596e-16 7.309297035208691190e-16 -1.000000000000000000e+01 -9.840954472050032833e-16 -1.775921110348263029e-15 -1.000000000000000000e+01 -3.607817928114221595e-15 -3.085606248816129170e-15 -4.732084801840348687e-17 1.998179999999999978e+01 8.718970000000000331e-01 2.396399999999999864e+00 2.400000000000000000e+01 6.600778025771226221e-15 2.040983884992633198e-15 2.000000000000000000e+01 3.161804375727937398e-15 2.156910647310198547e-15 -3.607817928114221595e-15 -3.085606248816129170e-15 -4.732084801840348687e-17 2.000000000000000000e+01 -2.443254947958412504e-15 -8.999807820109383254e-16 2.400000000000000000e+01 1.403923329821207373e-15 6.022530355617187813e-15 2.000000000000000000e+01 6.817281641858143633e-16 -5.308051768466451656e-15 -3.607817928114221595e-15 -3.085606248816129170e-15 -4.732084801840348687e-17 1.997479999999999833e+01 -1.025649999999999951e+00 -2.819380000000000219e+00 2.400000000000000000e+01 3.081511299095591893e-15 7.477671203713587622e-15 2.000000000000000000e+01 -3.136554194029383265e-15 -7.210076527089764758e-15 -3.607817928114221595e-15 -3.085606248816129170e-15 -4.732084801840348687e-17 1.978150000000000119e+01 -3.009479999999999933e+00 -8.305149999999999366e+00 2.400000000000000000e+01 6.991144186080266397e-15 1.568086317750824240e-14 2.000000000000000000e+01 1.011755344361399887e-15 -9.715794641708443954e-15 1.507018620638558914e+01 -2.234866068494283908e+01 -5.111856675454043319e+00 -1.043897663359001804e+01 5.273875150555208791e+01 -1.191371325635170564e+02 2.250811645246028192e+01 1.373890404362978046e+00 -7.219437011729000986e+00 3.593093169151564581e+01 -2.657368651143322325e+01 4.518724502255246023e+01 -2.818400000000000105e+01 1.072940000000000005e+01 -1.915919999999999845e+01 2.980568425339519148e-16 3.147715731543084287e-15 1.000000000000000000e+01 1.240649872995092040e-15 3.103686405770037508e-15 1.000000000000000000e+01 1.725000884039625020e-15 1.527700676334747555e-15 1.783964555846596718e-16 -1.998179999999999978e+01 8.718970000000000331e-01 -2.396399999999999864e+00 -2.400000000000000000e+01 3.337335501854493987e-15 -4.558710934775318319e-17 -2.000000000000000000e+01 -2.784595601372190738e-16 -1.716154605049945988e-15 1.725000884039625020e-15 1.527700676334747555e-15 1.783964555846596718e-16 -2.000000000000000000e+01 3.338912370868764649e-16 9.606835407591727330e-16 -2.400000000000000000e+01 -4.778396374892607991e-16 -4.887937354805914960e-15 -2.000000000000000000e+01 -1.196304360352637526e-15 4.485730930702502972e-15 1.725000884039625020e-15 1.527700676334747555e-15 1.783964555846596718e-16 -1.997479999999999833e+01 -1.025649999999999951e+00 2.819380000000000219e+00 -2.400000000000000000e+01 3.969964161164414276e-15 -2.889538254341160659e-15 -2.000000000000000000e+01 -1.051885708841624423e-15 1.769445039886417139e-15 1.725000884039625020e-15 1.527700676334747555e-15 1.783964555846596718e-16 -1.978150000000000119e+01 -3.009479999999999933e+00 8.305149999999999366e+00 -2.400000000000000000e+01 -1.051916514599367305e-15 -1.273083844194981319e-15 -2.000000000000000000e+01 -2.383746341876543800e-16 1.767620469057952987e-15
7.640304222331562869e+02 8.771893802911930038e+01 4.680477315678663430e+00 2.525090116002183294e+01 -1.524550551837323376e+01 -1.565005101993402832e+02 3.631334322336108755e+01 -4.992982714390522148e+01 4.860752818721415025e+01 -2.022755202160689159e+00 2.883604123369477890e+01 -4.121074765731355782e+00 6.108838437898620910e+00 -1.424879103102882905e+00 3.444372683927791456e+01 4.932770782921030417e+01 -3.955510539622038380e+01 3.591913506842681159e+01 -6.727137105813743467e+00 4.271226262752028191e+01 1.658646654751560945e+01 -1.276569223788350271e+01 -1.241656260216023355e+01 8.465652344860053802e+00 1.255825131573626630e+00 9.964214153756817183e+00 -2.736112479390205010e+01 -8.679262255360166434e-02 2.553683328397771124e+00 -7.114067915233636796e+00 -1.114289679085055454e-02 3.879125203092835150e+00 -1.109595953376530630e+01 -1.008060156358870696e+00 -6.114044279790324943e-01 2.442363434147990731e+00 -4.673696879043420793e+00 -2.349429256936899968e+00 2.575587058766105741e+01 -1.700695115597703833e+01 -2.068095435794187864e+00 3.088723798403296428e+01 4.230417464242336223e+00 -3.457242014041919109e+00 -5.219869747200425181e+00 6.264368515146075111e+01 -1.466473594973637873e+01 -9.929835102635090394e+00 6.424709566297219965e+01 -2.331165525519602255e+01 1.019058203107183260e+02 -1.755449654919330271e+01 -1.255240742099623397e+01 -1.788472387652982221e+00 2.818400000000000105e+01 1.072940000000000005e+01 1.915919999999999845e+01 6.238518989545071840e-16 6.897416542334352029e-16 -1.000000000000000000e+01 -1.126902449941916943e-15 -2.022216094961885263e-15 -1.000000000000000000e+01 -3.509911112532032161e-15 -2.976159693648125796e-15 -4.804021774925918850e-17 1.998179999999999978e+01 8.718970000000000331e-01 2.396399999999999864e+00 2.400000000000000000e+01 6.896214012314068406e-15 2.394848188079467032e-15 2.000000000000000000e+01 3.209692268825782794e-15 2.598459589469880047e-15 -3.509911112532032161e-15 -2.976159693648125796e-15 -4.804021774925918850e-17 2.000000000000000000e+01 -2.398529138543041064e-15 -7.426466001080202707e-16 2.400000000000000000e+01 1.500298186350233923e-15 6.090491602425396041e-15 2.000000000000000000e+01 6.581762601151755271e-16 -4.947725803357625123e-15 -3.509911112532032161e-15 -2.976159693648125796e-15 -4.804021774925918850e-17 1.997479999999999833e+01 -1.025649999999999951e+00 -2.819380000000000219e+00 2.400000000000000000e+01 3.366488784339111881e-15 7.944439359698441637e-15 2.000000000000000000e+01 -3.132152901248682104e-15 -6.576463439324866557e-15 -3.509911112532032161e-15 -2.976159693648125796e-15 -4.804021774925918850e-17 1.978150000000000119e+01 -3.009479999999999933e+00 -8.305149999999999366e+00 2.400000000000000000e+01 7.921855174079552942e-15 2.017611053120407656e-14 2.000000000000000000e+01 1.035573071300525577e-15 -9.356840769135321540e-15 1.485967057489806109e+01 -2.213368282483704519e+01 -5.119695707944896590e+00 -1.112025363717058823e+01 5.340844550578894712e+01 -1.180972514758237253e+02 2.199065156064749615e+01 1.289935421579068375e+00 -7.141874466129637611e+00 3.605939480944933706e+01 -2.796080262216079859e+01 4.510784518666305587e+01 -2.818400000000000105e+01 1.072940000000000005e+01 -1.915919999999999845e+01 6.120044791266872623e-16 3.335473979232576208e-15 1.000000000000000000e+01 1.346786396387907478e-15 3.275147360156765262e-15 1.000000000000000000e+01 1.521839680972108908e-15 1.488481766899578793e-15 2.015051026858316566e-16 -1.998179999999999978e+01 8.718970000000000331e-01 -2.396399999999999864e+00 -2.400000000000000000e+01 3.051912395579093214e-15 1.313719283777112269e-15 -2.000000000000000000e+01 -3.666402282278988549e-16 -1.191523344463649006e-15 1.521839680972108908e-15 1.488481766899578793e-15 2.015051026858316566e-16 -2.000000000000000000e+01 2.315320382390680693e-17 1.506468213645497356e-15 -2.400000000000000000e+01 -1.012227890876068953e-15 -3.444535522360488544e-15 -2.000000000000000000e+01 -1.227081666727756754e-15 4.951730346984989828e-15 1.521839680972108908e-15 1.488481766899578793e-15 2.015051026858316566e-16 -1.997479999999999833e+01 -1.025649999999999951e+00 2.819380000000000219e+00 -2.400000000000000000e+01 3.702872139016208968e-15 -1.721867209492934234e-15 -2.000000000000000000e+01 -1.199645637190872110e-15 1.995126094123457651e-15 1.521839680972108908e-15 1.488481766899578793e-15 2.015051026858316566e-16 -1.978150000000000119e+01 -3.009479999999999933e+00 8.305149999999999366e+00 -2.400000000000000000e+01 -1.636367062024821291e-15 3.729063844703075509e-16 -2.000000000000000000e+01 -3.660616117177398705e-16 1.912592051628177954e-15
